<svg xmlns="http://www.w3.org/2000/svg" width="118" height="30" viewBox="0 0 118 30" fill="none"><script xmlns=""/><script xmlns=""/>
<g clip-path="url(#clip0_7241_2344)">
<path d="M70.2272 24.4463L69.643 25.1574C69.3509 24.8019 68.9372 24.5689 68.5295 24.5689C67.7688 24.5689 67.1786 25.1574 67.1786 25.9298C67.1786 26.696 67.7628 27.2906 68.5295 27.2906C68.9372 27.2906 69.3509 27.1129 69.643 26.7573L70.2272 27.4071C69.7586 27.8791 69.1136 28.1733 68.4686 28.1733C67.1786 28.1733 66.1807 27.168 66.1807 25.9298C66.1807 24.6302 67.1786 23.6862 68.5234 23.6862C69.1136 23.7414 69.7586 24.0356 70.2272 24.4463Z" fill="#758195"/>
<path d="M73.5676 24.8018L72.8618 26.512H74.2674L73.5676 24.8018ZM72.5697 27.3396L72.2168 28.2223H71.1641L73.0991 23.7903H74.1518L76.026 28.2223H74.9733L74.6203 27.3396H72.5697Z" fill="#758195"/>
<path d="M80.2493 27.2846V28.1673H77.3772V23.7415H78.3751V27.2846H80.2493Z" fill="#758195"/>
<path d="M85.5857 24.4463L85.0016 25.1574C84.7095 24.8019 84.2957 24.5689 83.888 24.5689C83.1274 24.5689 82.5371 25.1574 82.5371 25.9298C82.5371 26.696 83.1213 27.2906 83.888 27.2906C84.2957 27.2906 84.7095 27.1129 85.0016 26.7573L85.5857 27.4071C85.1172 27.8791 84.4722 28.1733 83.8271 28.1733C82.5371 28.1733 81.5392 27.168 81.5392 25.9298C81.5392 24.6302 82.5371 23.6862 83.8819 23.6862C84.4722 23.7414 85.1172 24.0356 85.5857 24.4463Z" fill="#758195"/>
<path d="M90.9766 26.3345C90.9766 27.5175 90.216 28.2225 88.9807 28.2225C87.7516 28.2225 86.9849 27.5114 86.9849 26.3345V23.7354H87.9828V26.3345C87.9828 26.9842 88.3905 27.3398 88.9807 27.3398C89.5649 27.3398 89.9787 26.9291 89.9787 26.3345V23.7354H90.9766V26.3345Z" fill="#758195"/>
<path d="M95.7237 27.2846V28.1673H92.8516V23.7415H93.8495V27.2846H95.7237Z" fill="#758195"/>
<path d="M99.1244 24.8017L98.4185 26.512H99.8242L99.1244 24.8017ZM98.1265 27.3395L97.7735 28.2222H96.7208L98.6559 23.7903H99.7086L101.583 28.2222H100.53L100.177 27.3395H98.1265Z" fill="#758195"/>
<path d="M104.401 24.6239V28.2283H103.403V24.6239H102.058V23.7964H105.751V24.6239H104.401Z" fill="#758195"/>
<path d="M107.68 25.985C107.68 26.7513 108.325 27.3459 109.031 27.3459C109.737 27.3459 110.382 26.7574 110.382 25.985C110.382 25.2188 109.798 24.6242 109.031 24.6242C108.271 24.6242 107.68 25.2126 107.68 25.985ZM111.374 25.985C111.374 27.2846 110.376 28.2286 109.031 28.2286C107.68 28.2286 106.689 27.2233 106.689 25.985C106.689 24.6855 107.687 23.7415 109.031 23.7415C110.382 23.7415 111.374 24.6855 111.374 25.985Z" fill="#758195"/>
<path d="M114.892 26.1015C115.421 26.1015 115.768 25.8624 115.768 25.3352C115.768 24.8632 115.476 24.6242 114.892 24.6242H113.955V26.1015H114.892ZM114.953 26.929H114.837H113.9V28.1673H112.963V23.7415H114.898C116.072 23.7415 116.717 24.2748 116.717 25.2739C116.717 25.985 116.425 26.457 115.896 26.69L116.833 28.1673H115.719L114.953 26.929Z" fill="#758195"/>
<path d="M6.27363 0L4.51507 1.83286L7.21072 4.54843L5.85985 5.90315L4.51507 7.264L1.81941 4.48713L0 6.31998L2.69565 9.03555L1.35087 10.3903L1.40563 19.4258L5.85985 14.9387L10.3141 10.3903L14.8291 5.90315L10.3141 1.41602L8.96929 2.77687L6.27363 0Z" fill="#B089F4"/>
<path d="M19.2835 1.36078V10.3902L14.8293 5.90308L10.3142 1.41595L19.2835 1.36078Z" fill="#CBB0F8"/>
<path d="M19.2286 28.4614H10.3141L5.80509 23.9191L1.40564 19.4258L5.85986 14.9387L10.3141 19.4258L14.7744 23.9191L19.2286 28.4614Z" fill="#9067FF"/>
<path d="M23.7373 14.9387L19.283 19.4259L14.774 23.9191L19.2283 28.4614L20.5731 27.1067L23.4452 30L25.2646 28.1672L22.3925 25.2739L23.7373 23.9191L25.0881 22.5583L27.9602 25.4516L29.7797 23.6188L26.9075 20.7254L28.1976 19.4259L28.2523 10.3903L23.7373 14.9387Z" fill="#7C3AED"/>
<g opacity="0.5">
<path d="M5.85986 14.9387L1.40564 19.4258L7.03426 16.1218L5.85986 14.9387Z" fill="#57459E"/>
</g>
<path d="M14.8294 5.90302L13.5941 7.13514L13.6002 7.1474L14.8294 5.90302Z" fill="#D6CFED"/>
<g opacity="0.25">
<path d="M10.3142 1.41602L13.594 7.13526L14.8293 5.90314L10.3142 1.41602Z" fill="#57459E"/>
</g>
<path d="M16.1188 22.6196L14.774 23.913L19.2283 28.4615L16.1188 22.6196Z" fill="#57459E"/>
<path d="M42.6738 19.8425C41.3837 21.0808 39.8016 21.6754 38.0431 21.6754C33.4732 21.6754 31.5382 18.4878 31.5382 15.3002C31.5382 12.0514 33.5889 8.80249 38.0431 8.80249C39.686 8.80249 41.2681 9.45226 42.5581 10.6905L41.0369 12.1678C40.2154 11.3403 39.1627 10.9848 38.0492 10.9848C35.1162 10.9848 33.8262 13.2283 33.8262 15.2941C33.8262 17.3599 35.0006 19.487 38.0492 19.487C39.1019 19.487 40.3371 19.015 41.1586 18.2488L42.6738 19.8425Z" fill="#302B36"/>
<path d="M45.2542 12.6951L45.4306 13.7004C46.0756 12.6399 47.0127 12.4622 47.895 12.4622C48.7774 12.4622 49.6536 12.8177 50.1222 13.2897L49.1851 15.1777C48.7165 14.8222 48.3636 14.5893 47.6638 14.5893C46.5503 14.5893 45.4976 15.1777 45.4976 16.7715V21.3751H43.3313V12.6951H45.2542Z" fill="#302B36"/>
<path d="M60.1441 12.6951L54.8684 25.0409H52.5196L54.1626 21.2587L50.7063 12.6951H53.1646L54.4547 16.4773L55.2761 18.9538L56.1585 16.5325L57.7406 12.6951H60.1441Z" fill="#302B36"/>
<path d="M68.5227 17.0657C68.5227 15.7049 67.5856 14.5831 66.0583 14.5831C64.537 14.5831 63.5938 15.7049 63.5938 17.0657C63.5938 18.4266 64.5918 19.5484 66.0583 19.5484C67.5308 19.5484 68.5227 18.4266 68.5227 17.0657ZM61.2572 25.0408V12.6951H63.2531L63.3687 13.8781C64.0137 12.9341 65.1881 12.4621 66.18 12.4621C68.8148 12.4621 70.6342 14.4728 70.6342 17.0106C70.6342 19.5484 69.0521 21.559 66.2956 21.559C65.3585 21.559 64.0076 21.2647 63.4235 20.3207V24.9856L61.2572 25.0408Z" fill="#302B36"/>
<path d="M75.2648 10.2737V12.7564H77.6684V14.5892H75.2648V18.3714C75.2648 19.199 75.7333 19.6097 76.3784 19.6097C76.7313 19.6097 77.0842 19.4932 77.4311 19.3154L78.0152 21.1483C77.3702 21.3873 76.9017 21.5038 76.2567 21.5038C74.3825 21.5651 73.1472 20.4985 73.1472 18.3162V14.5279H71.5043V12.6951H73.1472V10.4515L75.2648 10.2737Z" fill="#302B36"/>
<path d="M80.954 17.0658C80.954 18.3654 81.7755 19.6036 83.2968 19.6036C84.8789 19.6036 85.6395 18.3654 85.6395 17.0658C85.6395 15.7663 84.7024 14.4667 83.2968 14.4667C81.7694 14.528 80.954 15.7663 80.954 17.0658ZM87.8118 17.0658C87.8118 19.5485 86.1141 21.6142 83.2968 21.6142C80.4855 21.6142 78.8425 19.6036 78.8425 17.0658C78.8425 14.5832 80.5402 12.5174 83.2968 12.5174C86.0533 12.5174 87.8118 14.5832 87.8118 17.0658Z" fill="#302B36"/>
<path d="M92.6193 11.1627H88.7493V9.03564H98.8321V11.1627H94.962V21.3752H92.6193V11.1627Z" fill="#302B36"/>
<path d="M99.5326 17.0658C99.5326 18.7209 100.646 19.7201 102.113 19.7201C105.453 19.7201 105.453 14.4667 102.113 14.4667C100.646 14.4115 99.5326 15.4107 99.5326 17.0658ZM104.693 12.6951H106.743V21.3751H104.747L104.632 20.0756C104.163 21.0809 102.812 21.6081 101.821 21.6081C99.2405 21.6081 97.3663 20.0143 97.3663 17.0045C97.3663 13.9947 99.3622 12.4561 101.881 12.4561C103.056 12.4561 104.169 12.9894 104.638 13.8721L104.693 12.6951Z" fill="#302B36"/>
<path d="M114.069 12.695L112.371 15.6496L110.674 12.695H108.094V12.7563L110.905 16.9492L107.917 21.3199V21.375H110.497L112.371 18.4817L114.246 21.375H116.826V21.3199L113.838 16.9492L116.649 12.7563V12.695H114.069Z" fill="#302B36"/>
</g>
<defs>
<clipPath id="clip0_7241_2344">
<rect width="116.826" height="30" fill="white"/>
</clipPath>
</defs>
</svg>